<svg width="566" height="407" fill="none" xmlns="http://www.w3.org/2000/svg"><path d="M218.208 68.827H92.654v98.216h125.554V68.827zm135.68 0H227.321v98.216h126.567V68.827zm134.666 0H363v98.216h125.554V68.827zM218.208 175.143H92.654v97.203h125.554v-97.203zm135.68 0H227.321v97.203h126.567v-97.203z" stroke="#F6F4F2" stroke-width="1.5" stroke-linecap="round" stroke-linejoin="round"/><path d="M82.53 146.792v165.043h232.882M193.907 59.714h267.309" stroke="#F6F4F2" stroke-width="1.5" stroke-linecap="round" stroke-linejoin="round"/><path d="M292.629 301.709a8.607 8.607 0 10-8.607-8.606 8.607 8.607 0 008.607 8.606z" fill="#F6F4F2"/><path d="M178.537 114.447c.127 1.259.183 2.55.183 3.849 0 17.974-11.799 32.546-26.326 32.546-14.527 0-26.325-14.572-26.325-32.546a39.205 39.205 0 011.85-12.005m.174 22.289c-12.537-.286-24.757 4.023-34.426 12.137m84.04-12.15c10.981 1.79 21.395 6.303 30.376 13.162" stroke="#F6F4F2" stroke-width="1.5" stroke-linecap="round" stroke-linejoin="round"/><path d="M146.963 91.215c-1.836 4.116.477 9.138 4.084 11.801 3.607 2.664 8.176 3.514 12.578 4.308 2.114.377 4.378.738 6.357-.112 1.978-.851 3.353-3.458 2.177-5.279-1.39-2.158-5.157-1.099-6.047 1.316-.89 2.414.366 5.142 2.122 7.003a13.836 13.836 0 007.511 3.938c2.848.492 5.778.075 8.38-1.194 2.988-1.532 5.451-4.444 5.713-7.822.263-3.377-2.216-6.955-5.562-7.22a9.118 9.118 0 001.194-10.008 9.01 9.01 0 00-3.619-3.796 8.89 8.89 0 00-5.099-1.117m-37.521 13.724c-2.163 2.792-4.381 5.682-7.326 7.55-2.945 1.867-6.823 2.727-9.968 1.193a8.933 8.933 0 01-4.117-4.392 10.646 10.646 0 01-.731-5.887 10.557 10.557 0 012.526-5.349 5.19 5.19 0 012.833-1.753 2.64 2.64 0 011.645.193c.515.239.942.637 1.22 1.138a1.897 1.897 0 01-.028 1.627 1.862 1.862 0 01-.525.643c-.221.17-.476.288-.748.344m1.044-6.024a11.899 11.899 0 016.403-6.701 11.921 11.921 0 019.277-.078 23.493 23.493 0 0121.783-1.252m-15.188 58.95c1.396.517 3.006.765 4.627.713 1.622-.052 3.183-.402 4.486-1.005m-17.159-19.238h-.054.958-.606m21.978 0h-.054.958-.606m-12.118-.001c.43 4.132-.053 8.329-1.397 12.151l4.05-.283m155.332-23.005a47.753 47.753 0 011.61 12.473c0 16.022-7.477 29.04-16.706 29.04s-16.707-13.002-16.707-29.04a47.71 47.71 0 011.516-12.121m-3.541.66a262.273 262.273 0 0138.476-.557" stroke="#F6F4F2" stroke-width="1.5" stroke-linecap="round" stroke-linejoin="round"/><path d="M292.123 86.07c4.307-7.876 12.175-6.865 16.626-3.982 6.358 4.093 8.233 8.417 9.743 13.657 3.568 12.359 1.526 24.902 0 42.947m-26.369-52.959c-3.601-2.416-17.888-4.63-24.592 10.77-5.799 13.332-5.791 28.015-2.752 45.226m44.557-48.601c6.492 15.638 6.748 32.813.725 48.601" stroke="#F6F4F2" stroke-width="1.5" stroke-linecap="round" stroke-linejoin="round"/><path d="M278.96 91.103c-6.886 5.994-9.559 15.368-10.048 24.309-.489 8.94 1.451 19.787 2.747 26.317m16.413-50.626a19.595 19.595 0 00-3.894 6.551 20.277 20.277 0 00-1.151 7.624m10.109-12.15c-1.023 3.877-1.277 8.081-.735 12.15m-3.315 29.363h5.063m-.288-21.263l1.17 8.49a5.52 5.52 0 01-.085 2.718c-.327.823-1.307 1.293-1.81.626m-7.088-8.796h-1.013m16.201.001h-1.012m-21.264 21.262c.382 4.175.62 10.155 1.326 14.292.442 2.602 4.062 6.971 12.849 6.971m-14.175-12.15l-24.892 7.66c-1.671.518-3.436 1.099-4.539 2.461a9.362 9.362 0 00-1.324 9.117m56.069-26.326v14.176m0-8.1c10.068 1.801 18.682 4.283 28.711 6.068 2.521.446 4.236 3.302 4.544 5.808.356 2.945 0 6.847 0 9.387m72.659-54.336a61.284 61.284 0 007.52 25.922c1.951 3.555 4.805 7.28 9.016 7.805a9.905 9.905 0 007.551-2.623 19.81 19.81 0 004.496-6.524 49.075 49.075 0 004.52-25.128" stroke="#F6F4F2" stroke-width="1.5" stroke-linecap="round" stroke-linejoin="round"/><path d="M408.916 113.142l-.001-.001c-.797-.518-1.233-1.384-1.385-2.477-.152-1.099-.003-2.352.304-3.484.932-3.397 3.15-7.315 6.1-10.463 2.958-3.155 6.562-5.44 10.231-5.754 3.699-.316 7.796 1.134 11.542 3.462 3.735 2.321 7.029 5.459 9.108 8.374h.001c.9 1.26 1.648 2.797 1.913 4.262.264 1.458.039 2.748-.859 3.692-1.297 1.36-3.598 1.443-5.784.88a16.895 16.895 0 01-11.605-10.81l-.498-1.443-.838 1.276a35.86 35.86 0 01-12.698 11.739c-.942.514-1.97.956-2.956 1.134-.98.178-1.853.084-2.575-.387z" stroke="#F6F4F2" stroke-width="1.5"/><path d="M462.122 83.005h0c6.497 3.42 11.178 12.177 12.63 21.708 1.365 8.955-.168 18.289-5.422 24.161.047-.512.136-1.107.231-1.718l.032-.205c.108-.687.217-1.387.253-1.92.019-.28.026-.597-.035-.861a1.09 1.09 0 00-.266-.52.89.89 0 00-.797-.261c-.425.071-.756.372-.973.605a7.46 7.46 0 00-.738.977c-.411.625-.868 1.423-1.347 2.258l-.279.488c-.588 1.022-1.21 2.079-1.857 3.009-.652.937-1.293 1.69-1.905 2.145a.703.703 0 01-.746.05.7.7 0 01-.374-.649v-.002l.2-4.623.026-.601-.58-.156a1.386 1.386 0 00-.801.041c-.225.074-.44.193-.636.325-.392.262-.81.642-1.229 1.066-.756.767-1.607 1.778-2.427 2.751l-.268.319c-.92 1.09-1.772 2.081-2.446 2.686a4.26 4.26 0 01-.467.372c-.114-.347-.179-.812-.17-1.393.01-.744.139-1.62.376-2.568.475-1.897 1.368-4.008 2.52-5.81l.001-.003c3.353-5.289 5.552-9.713 6.593-15.989h0a20.974 20.974 0 00-5.703-18.1 20.978 20.978 0 00-17.972-6.096c-.618.088-1.525.438-2.465.84-.685.292-1.447.638-2.211.986l-.936.425c-1.077.484-2.098.928-2.917 1.214a6.652 6.652 0 01-.994.281c-.168.03-.247.026-.268.025-.243-.129-.315-.243-.34-.303-.027-.065-.046-.182.02-.396.144-.467.598-1.09 1.286-1.788 1.344-1.36 3.214-2.645 3.787-3.038a26.413 26.413 0 0120.016-4.142c2.651.58 4.993 1.878 7.457 3.244.7.388 1.41.782 2.141 1.166zm-10.442 51.561l.002-.001-.002.001z" stroke="#F6F4F2" stroke-width="1.5"/><path d="M430.348 89.167a8.766 8.766 0 00-2.044-1.89 2.913 2.913 0 00-2.668-.262 1.796 1.796 0 00-.918 2.314 2.662 2.662 0 001.728 1.095c1.802.505 3.685.66 5.545.455a4.468 4.468 0 00-5.244-2.398m5.175 44.177a4.366 4.366 0 01-8.545.617l8.545-.617zm-10.412-13.66v.217m12.988-.655v.216m-7.327.231c.004 1.18.381 2.319 1.059 3.204a6.463 6.463 0 011.255 3.108c0 1.153-.874 2.403-1.859 2.136m-17.183-11.717c-.988-2.137-5.199-2.438-4.134 1.434.91 3.293 3.702 7.628 4.357 7.103m33.781-11.677c.44-.771 1.705-.617 2.268.077.483.754.71 1.644.648 2.537.151 1.663.005 3.34-.432 4.952a4.698 4.698 0 01-3.456 3.262m-27.487 14.145c-7.589 1.635-15.425 3.363-21.788 7.782-6.363 4.419-11.06 12.247-9.409 19.837m54.728-27.619c5.306.401 18.41 4.705 22.32 8.314a24.16 24.16 0 017.628 18.688m-38.418 40.797l4.907-.222m-30.039.333c0 8.982 3.385 25.44 9.363 32.147 2.854 3.171 6.651 6.041 10.932 5.97 5.93-.103 10.307-5.55 12.859-10.933 3.568-7.412 5.55-18.955 5.677-27.184m-38.323-4.821a21.965 21.965 0 0120.025-12.811m-3.869 6.477a29.154 29.154 0 0118.496-2.378m-6.85 4.995a27.734 27.734 0 0116.172 2.711m-19.193-13.017h14.857m-37.895 1.585a25.006 25.006 0 0115.309-5.375" stroke="#F6F4F2" stroke-width="1.5" stroke-linecap="round" stroke-linejoin="round"/><path d="M423.81 229.368a2.38 2.38 0 003.345 3.379 2.377 2.377 0 00-3.123-3.585m-6.057-17.443l.087.849c-.491.174-.959-.619-.562-.96.396-.34 1.117.238.864.698m14.944.548l.175.65a.42.42 0 00.08-.21.425.425 0 00-.043-.222.419.419 0 00-.37-.226l-.294.864m-7.531 1.467a7.155 7.155 0 011.689 1.902 2.385 2.385 0 010 2.442 1.475 1.475 0 01-2.204.278m-12.408-14.77l5.13-.444m-8.776 19.955l2.465 25.092s.587 6.342 12.257 6.532m-14.112-7.746l-21.509 10.108c-2.267 1.07-4.582 2.172-6.342 3.964-1.76 1.791-3.226 7.555-2.378 9.909m61.94-23.981l17.925 5.09a11.273 11.273 0 015.382 3.396 11.274 11.274 0 012.689 5.768l.792 9.744m-61.964-63.059a1.506 1.506 0 00-.646-1.006 1.492 1.492 0 00-1.177-.207 2.441 2.441 0 00-1.634 1.744 7.239 7.239 0 00-.134 2.481l.277 4.226a9.792 9.792 0 00.563 3.211 3.357 3.357 0 002.339 2.1 2.053 2.053 0 002.378-1.641M243.521 329.048v51.639h22.276m71.891-51.639v51.639" stroke="#F6F4F2" stroke-width="1.5" stroke-linecap="round" stroke-linejoin="round"/><path d="M337.369 361.449h39.551a4.969 4.969 0 014.416 2.68l14.565 28.115a4.56 4.56 0 01-1.817 6.081 4.569 4.569 0 01-2.241.587H190.386a4.578 4.578 0 01-3.902-2.177 4.562 4.562 0 01-.18-4.459l14.296-28.108a4.948 4.948 0 014.431-2.719h38.622" stroke="#F6F4F2" stroke-width="1.5" stroke-linecap="round" stroke-linejoin="round"/><path d="M185.808 394.862v4.922a6.09 6.09 0 001.897 4.395 6.624 6.624 0 004.582 1.821h197.64a6.72 6.72 0 002.482-.471 6.518 6.518 0 002.105-1.347 6.205 6.205 0 001.406-2.018 5.994 5.994 0 00.494-2.38v-4.922M164.249 246.154a21.618 21.618 0 015.171 2.845c2.542 1.945.418 5.186-.659 6.624-3.37 4.513-8.847 7.232-12.651 9.635l-5.879-8.781-6.265 7.967a25.507 25.507 0 01-10.158-9.256c-1.037-1.683-1.898-3.604-1.608-5.532.289-1.929 1.986-3.826 3.981-3.621" stroke="#F6F4F2" stroke-width="1.5" stroke-linecap="round" stroke-linejoin="round"/><path d="M132.143 250.07l-18.725 6.451a20.491 20.491 0 00-5.949 2.796c-3.528 2.718-4.643 6.724-5.702 11.004m68.852-19.238l22.846 7.006a23.796 23.796 0 016.751 2.869 11.607 11.607 0 013.564 4.113 11.348 11.348 0 011.265 5.25" stroke="#F6F4F2" stroke-width="1.5" stroke-linecap="round" stroke-linejoin="round"/><path d="M501.084 49.589H83.162c-5.942 0-10.759 4.812-10.759 10.748V318.3c0 5.936 4.817 10.748 10.759 10.748h417.922c5.941 0 10.758-4.812 10.758-10.748V60.337c0-5.936-4.817-10.748-10.758-10.748z" stroke="#F6F4F2" stroke-width="1.5" stroke-linecap="round" stroke-linejoin="round"/><path d="M488.554 175.143H363v97.203h125.554v-97.203zm-217.173 40.545a9.724 9.724 0 015.589-.079m5.645 3.831l-1.538 7.016a3.774 3.774 0 000 2.331c.325.713 1.364 1.149 1.934.594m6.105-8.474a.31.31 0 00.044.379.318.318 0 00.114.073.319.319 0 00.389-.278l-.381-.111a.334.334 0 00-.1.091.318.318 0 00-.044.26.3.3 0 00.064.119.305.305 0 00.372.075.308.308 0 00.105-.085m-15.508-1.126l.254.428a.37.37 0 00.285-.594.304.304 0 00-.181.281.307.307 0 00.181.282m3.251 14.103a6.76 6.76 0 005.237 3.832 6.756 6.756 0 006.052-2.341" stroke="#F6F4F2" stroke-width="1.5" stroke-linecap="round" stroke-linejoin="round"/><path d="M307.199 218.727c0 15.277-6.485 30.918-19.233 30.918-12.748 0-23.046-19.819-23.046-35.096m22-14.611c-.793 2.085 1.07 4.305 3.124 5.193 2.053.888 4.408 1.038 6.342 2.124 2.545 1.427 3.964 4.162 5.74 6.477 1.775 2.315 4.487 4.464 7.325 3.814 2.505-.579 4.099-3.298 3.964-5.843a7.283 7.283 0 00-3.766-5.978m-37.3-12.534a11.973 11.973 0 0113.81-2.767 13.482 13.482 0 0114.27 1.625" stroke="#F6F4F2" stroke-width="1.5" stroke-linecap="round" stroke-linejoin="round"/><path d="M279.705 198.573a13.148 13.148 0 00-4.123.515 4.496 4.496 0 00-2.941 2.735c-.515 1.665.301 3.639-.563 5.153-.793 1.364-2.537 1.729-3.964 2.379-2.727 1.157-3.488 4.051-2.981 8.348m-4.741-15.388a18.29 18.29 0 00-1.95 11.805c.706 3.964 4.987 8.784 8.031 11.472m38.918 7.681l-.158 15.753m1.015-10.361c2.608.515 5.612 1.356 6.596 3.821.467 1.174.372 2.521.911 3.663s1.839 2.037 2.902 2.925c1.062.888 2.053 2.165 1.799 3.528-.38 2.109-3.448 3.108-3.424 5.248 0 1.213 1.078 2.228 1.102 3.441.023 1.213-1.158 2.299-2.228 3.068l-4.971 3.576c-2.053 1.482-6.342 4.653-8.839 4.479m-24.712-28.398c-1.768.19-4.757 1.086-6.192 2.172a4.986 4.986 0 00-2.005 4.662c.34 1.744 2.196 3.171 3.908 2.703a7.798 7.798 0 00-.908 8.382 7.799 7.799 0 007.25 4.303c-.047 1.99 2.379 4.558 3.964 5.724m32.053-27.946c10.774.317 23.783 8.388 31.22 16.165m-78.225-10.608a129.68 129.68 0 00-28.675 8.15m68.03-56.105a5.614 5.614 0 01-5.249-4.13 6.107 6.107 0 012.379-6.342 6.728 6.728 0 016.826-.397 7.503 7.503 0 013.868 5.724 8.437 8.437 0 01-2.243 6.596" stroke="#F6F4F2" stroke-width="1.5" stroke-linecap="round" stroke-linejoin="round"/><path d="M268.606 197.012a3.696 3.696 0 001.76-6.668c-1.681-1.213-4.012-.793-5.994-.182a15.558 15.558 0 00-4.709 2.259 7.489 7.489 0 00-2.901 4.242 4.99 4.99 0 001.419 4.756 3.774 3.774 0 004.812.127m24.822 13.035a9.423 9.423 0 005.13.341m-2.847 74.637L295.5 296m.673-6.441l-6.075 6.075" stroke="#F6F4F2" stroke-width="1.5" stroke-linecap="round" stroke-linejoin="round"/><path d="M328.12 286.521h-14.279c-1.369 0-2.48 1.083-2.48 2.419v8.325c0 1.336 1.111 2.419 2.48 2.419h14.279c1.369 0 2.479-1.083 2.479-2.419v-8.325c0-1.336-1.11-2.419-2.479-2.419z" fill="#F6F4F2"/><path d="M328.574 292.754l7.088-6.233v12.151l-7.088-5.918zm-57.234-8.258h-19.186c-1.412 0-2.557 1.168-2.557 2.609v7.945c0 1.441 1.145 2.609 2.557 2.609h19.186c1.413 0 2.557-1.168 2.557-2.609v-7.945c0-1.441-1.144-2.609-2.557-2.609z" fill="#F6F4F2"/><path d="M253.809 296.646l-.163 6.076 8.101-6.076m-6.075-4.05c.559 0 1.012-.68 1.012-1.519 0-.838-.453-1.518-1.012-1.518-.559 0-1.013.68-1.013 1.518 0 .839.454 1.519 1.013 1.519zm6.075 0c.559 0 1.012-.68 1.012-1.519 0-.838-.453-1.518-1.012-1.518-.559 0-1.013.68-1.013 1.518 0 .839.454 1.519 1.013 1.519zm5.569 0a1.519 1.519 0 10-.001-3.037 1.519 1.519 0 00.001 3.037z" fill="#F6F4F2"/><path d="M543.897 2L526.53 30.99M18.296 38.987l32.444.888m478.423-.195l34.24-18.384M57.683 32.56L29.871 15.215M531.492 47.39l32.92.793M64.937 26.645L55.419 2.543" stroke="#D7F890" stroke-width="2.5" stroke-linecap="round" stroke-linejoin="round"/><path d="M170.803 214.521c.648 0 1.173-.788 1.173-1.76s-.525-1.76-1.173-1.76-1.173.788-1.173 1.76.525 1.76 1.173 1.76zm-14.665 0a1.76 1.76 0 100-3.52 1.76 1.76 0 000 3.52z" fill="#F6F4F2"/><path d="M140.299 205.325c.812-5.795 1.04-11.387 5.658-15.319 15.477-12.766 27.909 11.362 30.446 20.834 2.233 8.834-10.149 28.749-13.726 30.153-.415.178-.85.307-1.294.383-5.227.971-11.874-3.702-14.132-8.349" stroke="#F6F4F2" stroke-width="1.5" stroke-miterlimit="10" stroke-linecap="round"/><path d="M137.268 253.239a.75.75 0 001.5 0h-1.5zm1.5 0c0-15.686-.469-21.881 1.104-37.469l-1.493-.151c-1.583 15.684-1.111 21.981-1.111 37.62h1.5z" fill="#F6F4F2"/><path d="M142.645 206.759a12.186 12.186 0 00-1.981-2.63c-5.392-5.261-8.963 6.417-6.728 9.757.696.833 1.593 1.412 2.576 1.665a4.524 4.524 0 002.953-.244c.436-.152.86-.346 1.268-.579m17.165-7.248h-5.867m19.607-.245l-1.601.059-1.866.068-1.805.066-1.428.052" stroke="#F6F4F2" stroke-width="1.5" stroke-miterlimit="10" stroke-linecap="round"/><path d="M164.277 231.29c-1.787 1.91-6.181 1.493-6.868-1.107" stroke="#F6F4F2" stroke-width="1.5" stroke-linecap="round" stroke-linejoin="round"/><path d="M139.244 209.827c-.644.725-1.476 1.141-2.347 1.173m28.034-3.206c-1.833 3.521 1.364 8.748 2.037 12.384.487 2.51 1.16 7.33-4.377 5.771" stroke="#F6F4F2" stroke-width="1.5" stroke-miterlimit="10" stroke-linecap="round"/><rect width="135" height="49" rx="24.5" transform="matrix(-1 0 0 1 135 136)" fill="#fff"/><path d="M139.003 185.626c-6.944-5.781-5.877-15.149-4.625-19.003l-13.133 11.704c6.033 7.766 14.286 7.708 17.758 7.299z" fill="#fff"/><path d="M20.638 156.648l-1.4.196c.364 1.414 1.456 2.296 2.982 2.296 1.456 0 2.884-.91 2.884-3.206v-7.014h-1.386v7.112c0 1.106-.504 1.764-1.582 1.764-.756 0-1.232-.378-1.498-1.148zm9.536 2.492c2.128 0 3.724-1.68 3.724-3.794 0-2.128-1.596-3.808-3.724-3.808s-3.724 1.68-3.724 3.808c0 2.114 1.596 3.794 3.724 3.794zm0-1.204c-1.428 0-2.366-1.148-2.366-2.59 0-1.456.938-2.59 2.366-2.59 1.428 0 2.366 1.134 2.366 2.59 0 1.442-.938 2.59-2.366 2.59zm8.577-6.398c-.812 0-1.666.406-2.17 1.078h-.028v-3.976H35.25V159h1.302v-4.158c0-1.19.756-2.1 1.932-2.1.924 0 1.512.532 1.512 1.918V159h1.302v-4.578c0-1.918-1.092-2.884-2.548-2.884zm4.402.14V159h1.302v-4.158c0-1.19.784-2.1 1.96-2.1.938 0 1.568.546 1.568 2.016V159h1.302v-4.48c0-2.016-1.106-2.982-2.562-2.982-.812 0-1.736.392-2.24 1.078h-.028v-.938h-1.302zm7.41 8.96h1.135l.896-3.052H51.11l-.546 3.052zM57.4 148.92V159h1.386v-10.08H57.4zM67.7 159v-1.19a2.393 2.393 0 01-.435.042c-.714 0-1.274-.21-1.274-1.246v-3.766h1.708v-1.162H65.99v-2.464l-1.302.49v1.974H63.33v1.162h1.358v3.696c0 1.638.714 2.534 2.436 2.534.196 0 .378-.028.574-.07zm4.849-7.462c-.812 0-1.666.406-2.17 1.078h-.028v-3.976h-1.302V159h1.302v-4.158c0-1.19.756-2.1 1.932-2.1.924 0 1.512.532 1.512 1.918V159h1.302v-4.578c0-1.918-1.092-2.884-2.548-2.884zm5.2-.966a.914.914 0 00.924-.924.926.926 0 00-.924-.938.93.93 0 00-.938.938c0 .518.406.924.938.924zm-.658 1.106V159h1.302v-7.322H77.09zm3.36 0V159h1.302v-4.158c0-1.19.784-2.1 1.96-2.1.938 0 1.568.546 1.568 2.016V159h1.302v-4.48c0-2.016-1.106-2.982-2.562-2.982-.812 0-1.736.392-2.24 1.078h-.028v-.938H80.45zm13.949 0h-1.85l-2.8 2.982h-.028v-6.02H88.42V159h1.302v-3.444h.028L92.733 159h1.848l-3.598-3.92 3.416-3.402zm-69.421 14l-2.17 5.782h-.028l-2.128-5.782h-1.526l2.94 7.322-1.246 2.8h1.512l4.116-10.122h-1.47zm5.579 7.462c2.128 0 3.724-1.68 3.724-3.794 0-2.128-1.596-3.808-3.724-3.808s-3.724 1.68-3.724 3.808c0 2.114 1.596 3.794 3.724 3.794zm0-1.204c-1.428 0-2.366-1.148-2.366-2.59 0-1.456.938-2.59 2.366-2.59 1.428 0 2.366 1.134 2.366 2.59 0 1.442-.938 2.59-2.366 2.59zm7.635 1.204c.882 0 1.666-.378 2.184-1.05h.028v.91h1.302v-7.322h-1.302v4.158c0 1.19-.756 2.086-1.89 2.086-.938 0-1.512-.616-1.512-1.876v-4.368H35.7v4.55c0 1.82.938 2.912 2.492 2.912zm6.714-10.136l-.28 3.612h-.77l-.28-3.612h1.33zm1.857 2.674V173h1.302v-4.284c0-1.134.7-1.834 1.834-1.834.154 0 .322.014.475.07v-1.288a1.778 1.778 0 00-.476-.07c-.896 0-1.484.406-1.806 1.036h-.027v-.952h-1.302zm7.909 6.286c-1.302 0-2.086-.966-2.226-2.212h5.712c0-2.618-1.4-4.2-3.556-4.214-2.086-.028-3.556 1.61-3.556 3.794 0 2.198 1.47 3.808 3.626 3.808 1.596 0 2.786-.784 3.248-2.254l-1.358-.196c-.238.672-.868 1.274-1.89 1.274zm-.084-5.25c1.232 0 1.96 1.05 2.1 1.96h-4.214c.154-.91.882-1.96 2.114-1.96zm11.68 6.426c2.128 0 3.724-1.68 3.724-3.794 0-2.128-1.596-3.808-3.724-3.808s-3.724 1.68-3.724 3.808c0 2.114 1.596 3.794 3.724 3.794zm0-1.204c-1.428 0-2.366-1.148-2.366-2.59 0-1.456.938-2.59 2.366-2.59 1.428 0 2.366 1.134 2.366 2.59 0 1.442-.938 2.59-2.366 2.59zm5.213-6.258V173h1.302v-4.158c0-1.19.784-2.1 1.96-2.1.938 0 1.568.546 1.568 2.016V173h1.302v-4.48c0-2.016-1.106-2.982-2.562-2.982-.812 0-1.736.392-2.24 1.078h-.028v-.938h-1.302zm19.19-.14c-1.05 0-1.947.476-2.493 1.26-.42-.798-1.12-1.26-2.044-1.26-.812 0-1.498.322-2.03 1.078h-.028v-.938h-1.302V173h1.302v-4.13c0-1.204.728-2.128 1.764-2.128.84 0 1.428.518 1.428 1.568V173h1.302v-4.144c0-1.218.728-2.114 1.764-2.114.84 0 1.428.518 1.428 1.568V173h1.302v-4.802c0-1.568-.966-2.66-2.394-2.66zm6.652 7.602c.882 0 1.666-.378 2.184-1.05h.028v.91h1.302v-7.322h-1.302v4.158c0 1.19-.756 2.086-1.89 2.086-.938 0-1.512-.616-1.512-1.876v-4.368h-1.302v4.55c0 1.82.938 2.912 2.492 2.912zm9.094-.14v-1.19a2.393 2.393 0 01-.434.042c-.714 0-1.274-.21-1.274-1.246v-3.766h1.708v-1.162h-1.708v-2.464l-1.302.49v1.974h-1.358v1.162h1.358v3.696c0 1.638.714 2.534 2.436 2.534.196 0 .378-.028.574-.07zm4.555-1.036c-1.302 0-2.086-.966-2.226-2.212h5.712c0-2.618-1.4-4.2-3.556-4.214-2.086-.028-3.556 1.61-3.556 3.794 0 2.198 1.47 3.808 3.626 3.808 1.596 0 2.786-.784 3.248-2.254l-1.358-.196c-.238.672-.868 1.274-1.89 1.274zm-.084-5.25c1.232 0 1.96 1.05 2.1 1.96h-4.214c.154-.91.882-1.96 2.114-1.96z" fill="#1D1E22"/><path d="M452.021 352.075a.182.182 0 00-.253.105.186.186 0 00-.006.102l6.315 26.481a.172.172 0 00.05.097.166.166 0 00.203.022.17.17 0 00.07-.084l3.728-9.72a.174.174 0 01.13-.114.168.168 0 01.161.062l11.809 14.774a.584.584 0 00.392.218.59.59 0 00.431-.128l2.178-1.82a.586.586 0 00.217-.397.575.575 0 00-.126-.434l-11.969-14.757a.177.177 0 01-.035-.079.167.167 0 01.008-.086.17.17 0 01.125-.11l9.825-1.859a.17.17 0 00.035-.32l-23.288-11.953z" fill="#D7F890"/></svg>