<svg width="100" height="22" fill="none" xmlns="http://www.w3.org/2000/svg"><path fill-rule="evenodd" clip-rule="evenodd" d="M18.046 21.483h4.974V.893l-4.974 1.792v18.798zm-4.8-13.818l-4.396 4.14H4.685l4.917-5.482c-.521-.056-1.042-.056-1.562-.056C4.049 6.267 0 9.232 0 13.93c0 4.867 4.165 7.888 8.387 7.888 3.123 0 5.553-1.454 6.825-3.357l-4.165-1.286c-.636.56-1.561.895-2.602.895-1.851 0-3.818-1.343-3.876-2.965h11.453c.058-.112.116-.783.116-1.343 0-2.741-1.1-4.81-2.893-6.098zm19.492-1.454c-4.223 0-7.924 3.02-7.924 7.776 0 4.979 3.817 7.888 8.27 7.888 3.413 0 6.016-1.454 7.289-3.357l-4.338-1.342c-.694.56-1.736.895-2.892.895-1.91 0-3.413-1.175-3.529-2.853h11.568c.058-.112.116-.784.116-1.399 0-4.811-3.528-7.608-8.56-7.608zm-3.008 6.042c.116-1.12 1.215-2.797 3.297-2.797 2.371 0 3.355 1.678 3.413 2.797h-6.71zm38.002-6.266c-4.222 0-8.097 3.021-8.097 7.776 0 4.98 3.99 7.888 8.444 7.888 3.297 0 6.016-1.398 7.346-3.244l-4.396-1.4c-.752.504-1.793.84-2.95.84-1.908 0-3.586-1.175-3.701-2.853h11.915c.058-.112.115-.783.115-1.399.058-4.755-3.644-7.608-8.676-7.608zm-3.18 6.098c.115-1.119 1.387-2.741 3.47-2.741 2.371 0 3.586 1.622 3.643 2.74h-7.114zm23.135-5.762c-1.677 0-3.644.671-4.57 2.07V5.93l-4.8 2.184V21.54h4.974v-8.503c0-1.51 1.042-2.573 2.661-2.573 1.793 0 2.66 1.118 2.66 2.573v8.56h4.975v-9.4c.058-3.244-1.793-5.873-5.9-5.873zm11.04-1.679c0-.447-.347-.783-.867-.783h-1.041v2.406h.636v-.783h.174l.404.783h.695l-.463-.895c.289-.168.463-.448.463-.728zm-.983.28h-.289v-.56h.29c.173 0 .346.113.346.28 0 .168-.115.28-.347.28zm-.058-2.126c-1.272 0-2.313 1.007-2.313 2.238 0 1.23 1.04 2.238 2.313 2.238 1.273 0 2.314-1.007 2.314-2.238 0-1.23-1.041-2.238-2.314-2.238zm0 3.972a1.723 1.723 0 01-1.735-1.734c0-.951.752-1.734 1.735-1.734.984 0 1.736.783 1.736 1.734.057 1.007-.694 1.734-1.736 1.734zM59.46 6.714h-6.015l-5.264 5.203V0l-4.974 2.685v18.798h4.974V17.68l2.719-1.678 3.47 5.482h5.553l-6.305-8.95 5.842-5.819z" fill="#F6F4F2"/></svg>